<?xml version="1.0" encoding="utf-8"?>
<!-- Generator: Adobe Illustrator 16.0.0, SVG Export Plug-In . SVG Version: 6.00 Build 0)  -->
<!DOCTYPE svg PUBLIC "-//W3C//DTD SVG 1.1//EN" "http://www.w3.org/Graphics/SVG/1.1/DTD/svg11.dtd">
<svg version="1.1" id="alarm_clock" xmlns="http://www.w3.org/2000/svg" xmlns:xlink="http://www.w3.org/1999/xlink" x="0px"
	 y="0px" width="164px" height="209px" viewBox="0 0 164 209" enable-background="new 0 0 164 209" xml:space="preserve">
<g>
	<path d="M87.385,57.346c-2.336,0-4.227,1.894-4.227,4.226v52.854l-32.041,22.615c-1.911,1.346-2.356,3.979-1.015,5.877
		c0.83,1.18,2.129,1.799,3.458,1.799c0.846,0,1.692-0.247,2.435-0.783l33.833-23.879c1.114-0.801,1.783-2.08,1.783-3.45V61.571
		C91.611,59.231,89.721,57.346,87.385,57.346"/>
	<path d="M158.385,112.906c0-41.504-33.767-75.271-75.268-75.271c-41.509,0-75.275,33.767-75.275,75.271
		c0,23.723,11.057,44.877,28.257,58.686L20.962,197.46c-1.177,2.014-0.5,4.605,1.514,5.794c0.665,0.388,1.403,0.569,2.129,0.569
		c1.453,0,2.864-0.751,3.648-2.088l14.774-25.232c11.622,7.354,25.348,11.679,40.098,11.679c14.741,0,28.459-4.316,40.081-11.67
		l14.766,25.231c0.784,1.337,2.204,2.089,3.648,2.089c0.727,0,1.461-0.182,2.138-0.57c2.015-1.188,2.69-3.764,1.511-5.794
		l-15.138-25.859C147.316,157.791,158.385,136.629,158.385,112.906 M83.109,179.722c-36.841,0-66.824-29.97-66.824-66.815
		c0-36.841,29.974-66.819,66.824-66.819c36.854,0,66.815,29.97,66.815,66.819C149.925,149.76,119.963,179.722,83.109,179.722"/>
	<path d="M13.294,53.169c0.718,0,1.444-0.177,2.113-0.565l47.22-27.267c0.966-0.557,1.676-1.478,1.965-2.559
		c0.285-1.085,0.14-2.241-0.425-3.207C55.479,4.529,36.19-0.634,21.155,8.045c-7.284,4.21-12.492,10.994-14.671,19.12
		C4.31,35.295,5.428,43.78,9.625,51.056C10.413,52.418,11.833,53.169,13.294,53.169 M14.647,29.353
		c1.589-5.943,5.41-10.912,10.734-13.99c3.615-2.084,7.572-3.083,11.477-3.083c6.62,0,13.091,2.848,17.54,8.048L15.163,42.976
		C13.624,38.634,13.43,33.917,14.647,29.353"/>
	<path d="M103.785,25.345l47.221,27.267c0.652,0.371,1.379,0.565,2.113,0.565c0.363,0,0.734-0.049,1.098-0.144
		c1.081-0.289,2.006-0.999,2.559-1.969c4.209-7.288,5.324-15.773,3.152-23.895c-2.179-8.122-7.387-14.919-14.666-19.116
		c-15.047-8.683-34.345-3.516-43.02,11.527c-0.554,0.974-0.719,2.121-0.43,3.202C102.102,23.855,102.803,24.78,103.785,25.345
		 M141.027,15.362c9.739,5.629,13.833,17.362,10.21,27.613l-39.239-22.653C119.071,12.073,131.279,9.733,141.027,15.362"/>
</g>
</svg>
